<?xml version="1.0" standalone="no"?>
<!DOCTYPE svg PUBLIC "-//W3C//DTD SVG 20010904//EN"
 "http://www.w3.org/TR/2001/REC-SVG-20010904/DTD/svg10.dtd">
<svg version="1.0" xmlns="http://www.w3.org/2000/svg"
 width="128.000000pt" height="128.000000pt" viewBox="0 0 128.000000 128.000000"
 preserveAspectRatio="xMidYMid meet">

<g transform="translate(0.000000,128.000000) scale(0.100000,-0.100000)"
fill="#000000" stroke="none">
<path d="M474 1034 l-166 -246 -62 61 c-60 59 -63 61 -79 43 -16 -17 -12 -22
63 -97 50 -50 83 -76 89 -70 8 9 306 446 344 505 15 24 15 26 -3 38 -18 11
-33 -8 -186 -234z"/>
<path d="M1146 1230 c-46 -14 -66 -39 -66 -82 l0 -38 -85 0 -85 0 0 -90 0 -90
125 0 125 0 0 90 c0 84 -1 90 -21 90 -18 0 -20 5 -17 42 3 37 7 43 33 50 17 5
40 6 53 3 18 -4 22 -12 22 -45 0 -40 13 -53 24 -24 19 49 -9 105 -52 103 -15
0 -40 -5 -56 -9z"/>
<path d="M0 870 l0 -330 303 2 c294 3 302 3 302 23 0 19 -8 20 -277 23 l-278
2 0 280 0 280 175 0 175 0 0 25 0 25 -200 0 -200 0 0 -330z"/>
<path d="M630 940 c0 -73 2 -80 20 -80 18 0 20 7 20 80 0 73 -2 80 -20 80 -18
0 -20 -7 -20 -80z"/>
<path d="M786 844 c-59 -21 -98 -56 -131 -115 -53 -99 -32 -226 50 -298 l34
-29 -55 -28 c-101 -51 -197 -180 -211 -284 -5 -32 -1 -43 20 -64 l26 -26 351
0 351 0 26 26 c21 21 25 32 20 64 -14 104 -110 233 -211 284 l-55 28 34 29
c82 72 103 199 50 298 -16 29 -43 64 -60 77 -68 51 -162 66 -239 38z m126 -64
c113 -32 162 -155 103 -256 -28 -48 -91 -84 -145 -84 -54 0 -117 36 -145 84
-58 98 -16 213 92 251 47 17 49 17 95 5z m87 -461 c91 -40 160 -116 187 -205
l13 -44 -329 0 -329 0 13 44 c56 184 269 282 445 205z"/>
</g>
</svg>
